HIERARCHY
ROOT Character1_Hips
{
	OFFSET 0.000000 0.000000 0.000000 
	CHANNELS 6 Xposition Yposition Zposition Zrotation Yrotation Xrotation
	JOINT Character1_Spine
	{
		OFFSET 0.000000 20.688101 -0.731520 
		CHANNELS 3 Zrotation Xrotation Yrotation
		JOINT Character1_Spine1
		{
			OFFSET 0.000000 11.704300 -0.487680 
			CHANNELS 3 Zrotation Xrotation Yrotation
			JOINT Character1_Neck
			{
				OFFSET 0.000000 22.189400 -2.194560 
				CHANNELS 3 Zrotation Xrotation Yrotation
				JOINT Character1_Head
				{
					OFFSET -0.243840 7.071330 1.219200 
					CHANNELS 3 Zrotation Xrotation Yrotation
					End Site
					{
						OFFSET 1.000000 0.000000 0.000000 
					}
				}
			}
			JOINT Character1_RightShoulder
			{
				OFFSET -2.682240 19.263399 -4.876800 
				CHANNELS 3 Zrotation Xrotation Yrotation
				JOINT Character1_RightArm
				{
					OFFSET -8.778240 -1.950730 1.463040 
					CHANNELS 3 Zrotation Xrotation Yrotation
					JOINT Character1_RightForeArm
					{
						OFFSET -28.174200 -1.711500 0.487680 
						CHANNELS 3 Zrotation Xrotation Yrotation
						JOINT Character1_RightHand
						{
							OFFSET -22.587900 0.773209 7.071360 
							CHANNELS 3 Zrotation Xrotation Yrotation
							End Site
							{
								OFFSET -1.782710 -1.182140 1.430490 
							}
						}
					}
				}
			}
			JOINT Character1_LeftShoulder
			{
				OFFSET 2.682240 19.263399 -4.876800 
				CHANNELS 3 Zrotation Xrotation Yrotation
				JOINT Character1_LeftArm
				{
					OFFSET 8.778240 -1.950730 1.463040 
					CHANNELS 3 Zrotation Xrotation Yrotation
					JOINT Character1_LeftForeArm
					{
						OFFSET 28.174200 -1.711500 0.487680 
						CHANNELS 3 Zrotation Xrotation Yrotation
						JOINT Character1_LeftHand
						{
							OFFSET 22.587900 0.773209 7.071360 
							CHANNELS 3 Zrotation Xrotation Yrotation
							End Site
							{
								OFFSET 1.782710 -1.182140 1.430490 
							}
						}
					}
				}
			}
		}
	}
	JOINT Character1_RightUpLeg
	{
		OFFSET -8.778240 4.350840 1.219200 
		CHANNELS 3 Zrotation Xrotation Yrotation
		JOINT Character1_RightLeg
		{
			OFFSET 0.000000 -38.526772 -1.463040 
			CHANNELS 3 Zrotation Xrotation Yrotation
			JOINT Character1_RightFoot
			{
				OFFSET 0.731520 -45.110401 -5.120640 
				CHANNELS 3 Zrotation Xrotation Yrotation
				End Site
				{
					OFFSET -1.122100 -3.699640 12.103000 
				}
			}
		}
	}
	JOINT Character1_LeftUpLeg
	{
		OFFSET 8.778240 4.350840 1.219200 
		CHANNELS 3 Zrotation Xrotation Yrotation
		JOINT Character1_LeftLeg
		{
			OFFSET 0.000000 -38.526772 -1.463040 
			CHANNELS 3 Zrotation Xrotation Yrotation
			JOINT Character1_LeftFoot
			{
				OFFSET -0.731520 -45.110401 -5.120640 
				CHANNELS 3 Zrotation Xrotation Yrotation
				End Site
				{
					OFFSET 1.122100 -3.699640 12.103000 
				}
			}
		}
	}
}
MOTION
Frames: 18
Frame Time: 0.008333
0.000000 82.985977 0.000000 0.000000 0.000000 0.000000 0.000000 0.000000 0.000000 0.000000 0.000000 0.000000 0.000000 0.000000 0.000000 0.000000 0.000000 0.000000 0.000000 0.000000 0.000000 0.000000 0.000000 0.000000 0.000000 0.000000 0.000000 0.000000 0.000000 0.000000 0.000000 0.000000 0.000000 0.000000 0.000000 0.000000 0.000000 0.000000 0.000000 0.000000 0.000000 0.000000 0.000000 0.000000 0.000000 0.000000 0.000000 0.000000 0.000000 0.000000 0.000000 0.000000 0.000000 0.000000 0.000000 0.000000 0.000000 0.000000 0.000000 0.000000 
0.000000 82.985977 0.000000 0.000000 0.000000 0.000000 0.000000 0.000000 0.000000 0.000000 0.000000 0.000000 0.000000 0.000000 0.000000 0.000000 0.000000 0.000000 0.000000 0.000000 0.000000 0.000000 0.000000 0.000000 0.000000 0.000000 0.000000 0.000000 0.000000 0.000000 0.000000 0.000000 0.000000 0.000000 0.000000 0.000000 0.000000 0.000000 0.000000 0.000000 0.000000 0.000000 0.000000 0.000000 0.000000 0.000000 0.000000 0.000000 0.000000 0.000000 0.000000 0.000000 0.000000 0.000000 0.000000 0.000000 0.000000 0.000000 0.000000 0.000000 
51.837299 84.370201 1.085380 -0.174000 -3.487300 -1.612000 2.346020 10.016700 -2.272520 0.002161 -0.382980 -0.565048 -3.004080 3.084240 -3.591050 3.341650 -27.458200 -5.801700 -0.000000 0.000000 -0.000000 77.290604 37.389198 4.907760 -20.092800 -13.128300 38.907200 -0.380511 -17.272900 -2.504670 -0.000000 0.000000 -0.000000 -79.697098 37.077801 -4.099480 20.572500 -13.752600 -40.075001 1.103470 -28.395800 4.357620 4.213530 -9.496020 7.597610 -0.050908 20.718901 0.330248 -2.840850 -8.876780 -10.300600 -2.375150 -7.139460 -3.426690 0.082356 19.505301 -0.361093 4.225650 -8.864030 15.527700 
51.909199 84.346199 0.912674 0.127500 -3.386200 -1.356500 2.457070 10.384700 -2.264150 -0.126397 -0.291153 -0.557970 -2.719410 2.802910 -3.367980 3.079260 -27.780600 -5.469870 -0.000000 0.000000 -0.000000 76.799896 38.007198 5.690440 -20.349501 -13.458600 39.531601 -0.379817 -17.257299 -2.502270 -0.000000 0.000000 -0.000000 -78.966698 37.942600 -4.715010 21.047701 -14.393500 -41.274399 1.103630 -28.396900 4.357850 4.299610 -9.848220 7.585920 -0.049849 20.741600 0.331258 -2.879830 -8.827280 -10.516500 -2.283590 -7.683290 -3.390960 0.085287 19.837099 -0.367307 4.231390 -8.982000 15.400900 
51.903599 84.328102 0.746431 0.095200 -3.338500 -1.120400 2.561810 10.764100 -2.269830 -0.244863 -0.206724 -0.555096 -2.481530 2.576770 -3.138710 2.907760 -28.205400 -5.088430 -0.000000 0.000000 -0.000000 76.222702 38.652000 6.519890 -20.572399 -13.750800 40.082100 -0.379378 -17.247801 -2.500810 -0.000000 0.000000 -0.000000 -78.218597 38.779499 -5.278450 21.510799 -15.041900 -42.481701 1.093950 -28.287901 4.337880 4.378860 -10.227200 7.570890 -0.048740 20.767300 0.332384 -2.918160 -8.788400 -10.722600 -2.198530 -8.265420 -3.359180 0.088491 20.192499 -0.373814 4.236030 -9.088270 15.281800 
51.812199 84.308701 0.567650 -0.366900 -3.243700 -0.880600 2.622390 11.121000 -2.280930 -0.320247 -0.228055 -0.555542 -2.404330 2.571510 -2.898920 3.013140 -28.854200 -4.575120 -0.000000 0.000000 -0.000000 75.581703 39.372002 7.278340 -20.746401 -13.980400 40.524101 -0.381215 -17.288900 -2.507120 -0.000000 0.000000 -0.000000 -77.519501 39.607700 -5.673080 21.950600 -15.683400 -43.656300 1.078850 -28.115999 4.306530 4.439820 -10.723500 7.586700 -0.048506 20.861500 0.334943 -2.956370 -8.768570 -10.904700 -2.149060 -8.906750 -3.353260 0.091317 20.514900 -0.379058 4.231470 -9.138440 15.189600 
51.727001 84.278297 0.348345 -0.791600 -3.240400 -0.521900 2.618460 11.437700 -2.301860 -0.328715 -0.402030 -0.561302 -2.581430 2.909570 -2.633910 3.568970 -29.847300 -3.833060 0.000000 0.000000 -0.000000 74.861504 40.234001 7.935860 -20.877100 -14.154400 40.861801 -0.387350 -17.423800 -2.527940 0.000000 0.000000 -0.000000 -76.912903 40.469002 -5.819390 22.396999 -16.368700 -44.852200 1.057330 -27.865000 4.261050 4.475730 -11.367400 7.657570 -0.049304 21.033300 0.339224 -2.996370 -8.777110 -11.060800 -2.152130 -9.621530 -3.388940 0.093520 20.783501 -0.382379 4.214420 -9.109680 15.135100 
51.704899 84.235397 0.100641 -0.939900 -3.299400 -0.034800 2.573940 11.735200 -2.335030 -0.292947 -0.669302 -0.572115 -2.936420 3.476740 -2.350390 4.464360 -31.087799 -2.917130 0.000000 0.000000 -0.000000 74.053200 41.195099 8.558910 -20.973700 -14.285500 41.107700 -0.396378 -17.618601 -2.558060 0.000000 0.000000 -0.000000 -76.371803 41.343498 -5.785300 22.839899 -17.081301 -46.073601 1.028450 -27.519199 4.198890 4.495980 -12.108400 7.761330 -0.050700 21.250700 0.344558 -3.037620 -8.807170 -11.198100 -2.190820 -10.395600 -3.451720 0.095434 21.030399 -0.384675 4.189920 -9.029280 15.106200 
51.786598 84.187103 -0.159413 -0.738100 -3.244500 0.485100 2.517070 12.037300 -2.368720 -0.249683 -0.968896 -0.583707 -3.326960 4.083660 -2.076080 5.448720 -32.372398 -1.976890 0.000000 0.000000 -0.000000 73.196297 42.141602 9.169520 -21.026699 -14.359000 41.238998 -0.405027 -17.800900 -2.586330 0.000000 0.000000 -0.000000 -75.857002 42.158600 -5.674890 23.224501 -17.722200 -47.198101 0.996466 -27.127001 4.128950 4.513050 -12.915400 7.862760 -0.052753 21.517000 0.350839 -3.076880 -8.842890 -11.315600 -2.243340 -11.207300 -3.518150 0.097257 21.278400 -0.386709 4.162500 -8.927950 15.087800 
51.934200 84.135399 -0.428858 -0.296600 -3.202200 1.015700 2.475840 12.367900 -2.391170 -0.235543 -1.239840 -0.591792 -3.606080 4.540870 -1.838670 6.241670 -33.500900 -1.176290 0.000000 0.000000 0.000000 72.335197 42.959702 9.785400 -21.026100 -14.359500 41.232800 -0.409748 -17.898600 -2.601520 0.000000 0.000000 0.000000 -75.320396 42.841202 -5.597790 23.510099 -18.209200 -48.095299 0.965214 -26.737000 4.059850 4.537220 -13.757400 7.926030 -0.055526 21.835699 0.357962 -3.110770 -8.868440 -11.412600 -2.286500 -12.035100 -3.564440 0.099204 21.550600 -0.389253 4.136690 -8.836390 15.064700 
52.044899 84.076897 -0.734447 0.115100 -3.189200 1.631800 2.466940 12.728400 -2.410820 -0.275870 -1.475840 -0.598540 -3.697690 4.783950 -1.645750 6.695800 -34.409698 -0.593036 0.000000 0.000000 -0.000000 71.477997 43.607300 10.445700 -20.952400 -14.259500 41.041599 -0.407616 -17.853800 -2.594570 0.000000 0.000000 -0.000000 -74.755997 43.349998 -5.577510 23.705299 -18.550400 -48.725201 0.931844 -26.316099 3.985640 4.570400 -14.656500 7.922770 -0.059527 22.236200 0.366385 -3.136120 -8.877880 -11.477200 -2.310800 -12.871500 -3.590950 0.101125 21.834700 -0.392183 4.113600 -8.758220 15.039000 
52.120800 84.016296 -1.056160 0.229600 -3.069600 2.252500 2.472350 13.107600 -2.430100 -0.345920 -1.706110 -0.605131 -3.689560 4.918490 -1.482530 6.965160 -35.211201 -0.137779 0.000000 0.000000 -0.000000 70.609200 44.148899 11.124100 -20.814699 -14.073300 40.691898 -0.401162 -17.718000 -2.573490 0.000000 0.000000 -0.000000 -74.186897 43.730999 -5.557010 23.843500 -18.801901 -49.151001 0.896110 -25.853701 3.904790 4.604370 -15.619600 7.878330 -0.064651 22.707199 0.376054 -3.155400 -8.880290 -11.513800 -2.328970 -13.728800 -3.608110 0.102981 22.124599 -0.395200 4.090820 -8.678590 15.016700 
52.082298 83.962898 -1.322720 -0.117300 -3.001000 2.704500 2.467370 13.510800 -2.428170 -0.407028 -1.922880 -0.605783 -3.678230 5.009990 -1.343270 7.206560 -35.972301 0.267980 0.000000 0.000000 -0.000000 69.742897 44.632401 11.736200 -20.646900 -13.848300 40.272499 -0.394824 -17.582701 -2.552540 0.000000 0.000000 -0.000000 -73.602402 44.042801 -5.529080 23.927299 -18.959801 -49.393200 0.864608 -25.432100 3.831770 4.634510 -16.592800 7.837010 -0.069998 23.190901 0.386064 -3.173640 -8.882290 -11.545800 -2.349680 -14.614400 -3.606930 0.105178 22.452101 -0.398834 4.067710 -8.600480 14.988700 
52.039700 83.910698 -1.556900 -0.314000 -3.017900 3.067300 2.426700 13.943300 -2.384030 -0.420444 -2.118400 -0.594710 -3.761130 5.123940 -1.222180 7.585060 -36.758598 0.707398 0.000000 0.000000 -0.000000 68.894402 45.107300 12.197200 -20.485100 -13.634500 39.871101 -0.392804 -17.539400 -2.545850 0.000000 0.000000 -0.000000 -72.992203 44.343601 -5.486440 23.956800 -19.016800 -49.473301 0.843034 -25.133499 3.780510 4.659410 -17.521999 7.843500 -0.074595 23.629299 0.395474 -3.195870 -8.890510 -11.596300 -2.380940 -15.536000 -3.578240 0.108146 22.849001 -0.403633 4.043710 -8.526860 14.945400 
52.028000 83.840103 -1.814840 -0.293000 -3.099300 3.483700 2.301200 14.404800 -2.266820 -0.350070 -2.275630 -0.564330 -3.983940 5.272940 -1.123350 8.178330 -37.563000 1.206090 0.000000 0.000000 -0.000000 68.042198 45.598900 12.497100 -20.338900 -13.444000 39.509800 -0.397915 -17.650499 -2.563010 0.000000 0.000000 -0.000000 -72.287201 44.691502 -5.495850 23.917101 -18.943100 -49.348701 0.831764 -24.973900 3.753260 4.666490 -18.360399 7.937350 -0.077694 23.974400 0.403520 -3.225850 -8.912800 -11.680100 -2.439850 -16.491501 -3.513270 0.112188 23.328501 -0.409661 4.017250 -8.436740 14.899200 
52.032101 83.746597 -2.090880 -0.191800 -3.214300 3.927100 2.116200 14.893200 -2.095630 -0.225005 -2.403690 -0.519730 -4.287850 5.423680 -1.048000 8.888020 -38.358200 1.719580 0.000000 0.000000 -0.000000 67.195999 46.079899 12.670800 -20.188700 -13.250400 39.142200 -0.407499 -17.854401 -2.594610 0.000000 0.000000 -0.000000 -71.513901 45.041199 -5.538990 23.813101 -18.751801 -49.024200 0.827335 -24.911301 3.742580 4.664400 -19.147100 8.086200 -0.079918 24.267900 0.410841 -3.260180 -8.943580 -11.782000 -2.514420 -17.478201 -3.418380 0.117090 23.872000 -0.416705 3.989180 -8.335770 14.850200 
52.062401 83.685097 -2.348230 -0.033100 -3.177200 4.396100 1.958800 15.410300 -1.924540 -0.104299 -2.534100 -0.474133 -4.614100 5.572830 -0.986027 9.621470 -39.179298 2.229630 0.000000 0.000000 -0.000000 66.418800 46.521198 12.698800 -20.028999 -13.047600 38.752800 -0.417281 -18.057199 -2.626170 0.000000 0.000000 -0.000000 -70.809502 45.296101 -5.478260 23.672701 -18.497601 -48.592602 0.829393 -24.941700 3.747730 4.683360 -19.957100 8.226960 -0.082343 24.586599 0.418604 -3.293080 -8.969270 -11.880300 -2.569170 -18.503300 -3.307190 0.122529 24.463699 -0.424901 3.962580 -8.266860 14.770800 
52.093102 83.631104 -2.623070 -0.075300 -2.983400 5.018800 1.918070 15.958100 -1.808120 -0.047037 -2.698410 -0.440764 -4.904020 5.717060 -0.927313 10.286300 -40.061600 2.718260 0.000000 0.000000 -0.000000 65.774300 46.893299 12.561000 -19.853800 -12.829100 38.326302 -0.422599 -18.165300 -2.643040 0.000000 0.000000 -0.000000 -70.313202 45.359200 -5.174580 23.526800 -18.238400 -48.145599 0.837757 -25.061100 3.768070 4.750440 -20.866100 8.296120 -0.086127 25.007099 0.428018 -3.318680 -8.976360 -11.953600 -2.569520 -19.573700 -3.193590 0.128190 25.087400 -0.434382 3.940340 -8.272900 14.633300 
